<?xml version="1.0" encoding="utf-8"?>
<!-- Generator: Adobe Illustrator 15.0.0, SVG Export Plug-In  -->
<!DOCTYPE svg PUBLIC "-//W3C//DTD SVG 1.1//EN" "http://www.w3.org/Graphics/SVG/1.1/DTD/svg11.dtd" [
	<!ENTITY ns_flows "http://ns.adobe.com/Flows/1.0/">
]>
<svg version="1.1"
	 xmlns="http://www.w3.org/2000/svg" xmlns:xlink="http://www.w3.org/1999/xlink" xmlns:a="http://ns.adobe.com/AdobeSVGViewerExtensions/3.0/"
	 x="0px" y="0px" width="64px" height="64px" viewBox="0.125 0.125 64 64" enable-background="new 0.125 0.125 64 64"
	 xml:space="preserve">
<defs>
</defs>
<circle display="none" opacity="0.52" fill="none" stroke="#000000" stroke-width="0.25" stroke-miterlimit="10" cx="32.125" cy="32.125" r="32"/>
<line display="none" opacity="0.5" fill="none" stroke="#000000" stroke-miterlimit="10" x1="0.125" y1="32.625" x2="64.125" y2="32.625"/>
<line display="none" opacity="0.5" fill="none" stroke="#000000" stroke-miterlimit="10" x1="31.625" y1="0.125" x2="31.625" y2="64.125"/>
<circle display="none" opacity="0.5" fill="none" stroke="#000000" stroke-width="0.25" stroke-miterlimit="10" cx="31.625" cy="32.625" r="24.5"/>
<path d="M49.66,22.991c-2.205-0.916-4.598,1.651-4.598,1.651l-0.182,3.496l-7.441,9.15l-3.975-14.165l2.396-3.292
	c0,0-0.051-4.22-4.483-4.22c-3.582,0-4.237,4.22-4.237,4.22l2.519,3.292L25.749,37.29l-7.409-9.15l-0.167-3.497
	c0,0-2.671-2.428-4.581-1.65c-1.91,0.778-2.252,4.678-2.252,4.678l3.984,2.555c0,0,1.251,2.792,1.658,6.326
	c0.406,3.533,1.33,11.575,1.33,11.575s5.098,1.512,13.068,1.512c7.969,0,13.315-1.512,13.315-1.512s0.912-9.037,1.578-11.575
	c0.664-2.539,1.656-6.326,1.656-6.326l3.982-2.555C51.91,27.67,51.865,23.908,49.66,22.991z"/>
</svg>
