<?xml version="1.0" encoding="utf-8"?>
<!-- Generator: Adobe Illustrator 15.0.0, SVG Export Plug-In  -->
<!DOCTYPE svg PUBLIC "-//W3C//DTD SVG 1.1//EN" "http://www.w3.org/Graphics/SVG/1.1/DTD/svg11.dtd" [
	<!ENTITY ns_flows "http://ns.adobe.com/Flows/1.0/">
]>
<svg version="1.1"
	 xmlns="http://www.w3.org/2000/svg" xmlns:xlink="http://www.w3.org/1999/xlink" xmlns:a="http://ns.adobe.com/AdobeSVGViewerExtensions/3.0/"
	 x="0px" y="0px" width="64px" height="64px" viewBox="0.354 0.354 64 64" enable-background="new 0.354 0.354 64 64"
	 xml:space="preserve">
<defs>
</defs>
<circle display="none" opacity="0.52" fill="none" stroke="#000000" stroke-width="0.25" stroke-miterlimit="10" cx="32.354" cy="32.354" r="32"/>
<line display="none" opacity="0.5" fill="none" stroke="#000000" stroke-miterlimit="10" x1="0.354" y1="32.854" x2="64.354" y2="32.854"/>
<line display="none" opacity="0.5" fill="none" stroke="#000000" stroke-miterlimit="10" x1="31.854" y1="0.354" x2="31.854" y2="64.354"/>
<circle display="none" opacity="0.5" fill="none" stroke="#000000" stroke-width="0.25" stroke-miterlimit="10" cx="31.854" cy="32.854" r="24.5"/>
<line display="none" fill="none" stroke="#000000" stroke-miterlimit="10" x1="64.354" y1="0.354" x2="0.354" y2="64.354"/>
<line display="none" fill="none" stroke="#000000" stroke-miterlimit="10" x1="0.354" y1="0.354" x2="64.354" y2="64.354"/>
<path d="M31.854,14.401c0,0,5.331,10.66,5.374,10.889s12.017,1.746,12.017,1.746s-8.584,8.052-8.695,8.476
	s2.053,11.968,2.053,11.968s-10.332-5.674-10.748-5.65s-10.748,5.65-10.748,5.65s2.274-11.392,2.053-11.968
	s-8.695-8.476-8.695-8.476s11.559-1.393,12.017-1.746S31.854,14.401,31.854,14.401z"/>
</svg>
