<?xml version="1.0" encoding="utf-8"?>
<!-- Generator: Adobe Illustrator 15.0.0, SVG Export Plug-In  -->
<!DOCTYPE svg PUBLIC "-//W3C//DTD SVG 1.1//EN" "http://www.w3.org/Graphics/SVG/1.1/DTD/svg11.dtd" [
	<!ENTITY ns_flows "http://ns.adobe.com/Flows/1.0/">
]>
<svg version="1.1"
	 xmlns="http://www.w3.org/2000/svg" xmlns:xlink="http://www.w3.org/1999/xlink" xmlns:a="http://ns.adobe.com/AdobeSVGViewerExtensions/3.0/"
	 x="0px" y="0px" width="64px" height="64px" viewBox="-8.02 -4.537 64 64" enable-background="new -8.02 -4.537 64 64"
	 xml:space="preserve">
<defs>
</defs>
<path d="M29.942,1.539L22.102,0l-7.83,6.304L9.994,6.779L4.27,12.87l1.086,5.904L0,23.223l2.268,5.719l6.624,2.087l-0.091,4.992
	l6.625,1.18l3.811-1.09l1.808,0.274l2.091,3.446l-0.002,4.628l-0.091,4.81l-1.633,2.721l-1.085,0.827l-1.814,1.646h4.472l2,0.522
	l1.691-0.183l0.998-0.09l2.269-0.453l-2.541-2.725l-0.635-2.176l0.182-4.265l0.818-5.173l1.634-3.539l4.992,1.272l3.085-1.905
	l4.447-0.182l5.444-3.812l1.814-6.987l-5.717-4.355l-0.091-6.443l-6.079-4.265c0,0-3.266-5.265-3.356-5.537"/>
</svg>
