<?xml version="1.0" encoding="utf-8"?>
<!-- Generator: Adobe Illustrator 15.0.0, SVG Export Plug-In  -->
<!DOCTYPE svg PUBLIC "-//W3C//DTD SVG 1.1//EN" "http://www.w3.org/Graphics/SVG/1.1/DTD/svg11.dtd" [
	<!ENTITY ns_flows "http://ns.adobe.com/Flows/1.0/">
]>
<svg version="1.1"
	 xmlns="http://www.w3.org/2000/svg" xmlns:xlink="http://www.w3.org/1999/xlink" xmlns:a="http://ns.adobe.com/AdobeSVGViewerExtensions/3.0/"
	 x="0px" y="0px" width="64px" height="64px" viewBox="0.354 0.354 64 64" enable-background="new 0.354 0.354 64 64"
	 xml:space="preserve">
<defs>
</defs>
<circle display="none" opacity="0.52" fill="none" stroke="#000000" stroke-width="0.25" stroke-miterlimit="10" cx="32.354" cy="32.354" r="32"/>
<line display="none" opacity="0.5" fill="none" stroke="#000000" stroke-miterlimit="10" x1="0.354" y1="32.854" x2="64.354" y2="32.854"/>
<line display="none" opacity="0.5" fill="none" stroke="#000000" stroke-miterlimit="10" x1="31.854" y1="0.354" x2="31.854" y2="64.354"/>
<circle display="none" opacity="0.5" fill="none" stroke="#000000" stroke-width="0.25" stroke-miterlimit="10" cx="31.854" cy="32.854" r="24.5"/>
<line display="none" fill="none" stroke="#000000" stroke-miterlimit="10" x1="64.354" y1="0.354" x2="0.354" y2="64.354"/>
<line display="none" fill="none" stroke="#000000" stroke-miterlimit="10" x1="0.354" y1="0.354" x2="64.354" y2="64.354"/>
<path d="M56.121,33.279c0-1.592-4.902-32.926-4.902-32.926s-4.055,30.021-4.055,32.678s-5.551,30.322-5.551,30.322
	s-5.834-27.563-5.834-30.156S31.354,0.354,31.354,0.354s-4.426,30.25-4.426,32.844s-5.834,30.156-5.834,30.156
	s-5.551-27.666-5.551-30.322S11.488,0.354,11.488,0.354S6.585,31.687,6.585,33.279c0,1.592-6.232,31.074-6.232,31.074h31h31
	C62.354,64.354,56.121,34.871,56.121,33.279z"/>
</svg>
