<?xml version="1.0" encoding="utf-8"?>
<!-- Generator: Adobe Illustrator 15.0.0, SVG Export Plug-In  -->
<!DOCTYPE svg PUBLIC "-//W3C//DTD SVG 1.1//EN" "http://www.w3.org/Graphics/SVG/1.1/DTD/svg11.dtd" [
	<!ENTITY ns_flows "http://ns.adobe.com/Flows/1.0/">
]>
<svg version="1.1"
	 xmlns="http://www.w3.org/2000/svg" xmlns:xlink="http://www.w3.org/1999/xlink" xmlns:a="http://ns.adobe.com/AdobeSVGViewerExtensions/3.0/"
	 x="0px" y="0px" width="64px" height="64px" viewBox="0 -4.375 64 64" enable-background="new 0 -4.375 64 64"
	 xml:space="preserve">
<defs>
</defs>
<path d="M26.25,0c0,0,7.875,6.875,3.375,10.188S27.812,21.587,24.5,23.625c-6.5,4-3.5,10.078-0.5,12.977s-2.406,5.99-4.25,6.523
	c-1.957,0.565-4.301-1.643-1.25-3.75c5.25-3.625-1.625-11.753-1.625-11.753S12.25,24,12.75,20.25c0.806-6.044,4.625-8.5,4.625-8.5
	s-11.625,4.5-12.75,9.5s5,5.125,0.75,8.625s-3.625,8.125-1.5,11S0,43.25,0,43.25v16.375h64v-23c0,0-0.856,2.941-2.106,3.191
	s-2.394,0.059-2.644-3.191s6.473-4.479,1.875-9c-4.598-4.521-7.5-7.375-7.5-7.375S57,26.625,52,29.25
	c-3.393,1.781-6.625,7.375-4.5,9s4.315,2.639,0.125,3.625c-4.25,1-5.75-3-5.25-4.75s7-4.25,1.5-12.25
	c-2.951-4.293-6.5-5.25-7.875-7.75s1.25-4.5,0.75-7.625S26.25,0,26.25,0z"/>
</svg>
