<?xml version="1.0" encoding="utf-8"?>
<!-- Generator: Adobe Illustrator 15.0.0, SVG Export Plug-In  -->
<!DOCTYPE svg PUBLIC "-//W3C//DTD SVG 1.1//EN" "http://www.w3.org/Graphics/SVG/1.1/DTD/svg11.dtd" [
	<!ENTITY ns_flows "http://ns.adobe.com/Flows/1.0/">
]>
<svg version="1.1"
	 xmlns="http://www.w3.org/2000/svg" xmlns:xlink="http://www.w3.org/1999/xlink" xmlns:a="http://ns.adobe.com/AdobeSVGViewerExtensions/3.0/"
	 x="0px" y="0px" width="64px" height="64px" viewBox="0.354 0.354 64 64" enable-background="new 0.354 0.354 64 64"
	 xml:space="preserve">
<defs>
</defs>
<circle display="none" opacity="0.52" fill="none" stroke="#000000" stroke-width="0.25" stroke-miterlimit="10" cx="32.354" cy="32.354" r="32"/>
<line display="none" opacity="0.5" fill="none" stroke="#000000" stroke-miterlimit="10" x1="0.354" y1="32.854" x2="64.354" y2="32.854"/>
<line display="none" opacity="0.5" fill="none" stroke="#000000" stroke-miterlimit="10" x1="31.854" y1="0.354" x2="31.854" y2="64.354"/>
<circle display="none" opacity="0.5" fill="none" stroke="#000000" stroke-width="0.25" stroke-miterlimit="10" cx="31.854" cy="32.854" r="24.5"/>
<line display="none" fill="none" stroke="#000000" stroke-miterlimit="10" x1="64.354" y1="0.354" x2="0.354" y2="64.354"/>
<line display="none" fill="none" stroke="#000000" stroke-miterlimit="10" x1="0.354" y1="0.354" x2="64.354" y2="64.354"/>
<path d="M31.771,11.02c24.167,0,32.583,1.939,32.583,1.939V0.354h-64v31.999v32.001h64V51.745c0,0-8.416,1.939-32.583,1.939
	S1.354,51.745,1.354,51.745V40.109c0,0,7.334,0.971,30.417,0.971s32.583-0.971,32.583-0.971v-7.757v-7.757c0,0-9.5-0.97-32.583-0.97
	s-30.417,0.97-30.417,0.97V12.959C1.354,12.959,7.604,11.02,31.771,11.02z"/>
</svg>
