<?xml version="1.0" encoding="utf-8"?>
<!-- Generator: Adobe Illustrator 15.0.0, SVG Export Plug-In  -->
<!DOCTYPE svg PUBLIC "-//W3C//DTD SVG 1.1//EN" "http://www.w3.org/Graphics/SVG/1.1/DTD/svg11.dtd" [
	<!ENTITY ns_flows "http://ns.adobe.com/Flows/1.0/">
]>
<svg version="1.1"
	 xmlns="http://www.w3.org/2000/svg" xmlns:xlink="http://www.w3.org/1999/xlink" xmlns:a="http://ns.adobe.com/AdobeSVGViewerExtensions/3.0/"
	 x="0px" y="0px" width="64px" height="64px" viewBox="0.125 0.125 64 64" enable-background="new 0.125 0.125 64 64"
	 xml:space="preserve">
<defs>
</defs>
<circle display="none" opacity="0.52" fill="none" stroke="#000000" stroke-width="0.25" stroke-miterlimit="10" cx="32.125" cy="32.125" r="32"/>
<line display="none" opacity="0.5" fill="none" stroke="#000000" stroke-miterlimit="10" x1="0.125" y1="32.625" x2="64.125" y2="32.625"/>
<line display="none" opacity="0.5" fill="none" stroke="#000000" stroke-miterlimit="10" x1="31.625" y1="0.125" x2="31.625" y2="64.125"/>
<circle display="none" opacity="0.5" fill="none" stroke="#000000" stroke-width="0.25" stroke-miterlimit="10" cx="31.625" cy="32.625" r="24.5"/>
<path d="M0.206,29.257c0,0,4.875,0.664,10.474,4.532c5.599,3.867,7.091-5.5,7.091-5.5s1.082-0.438,10.47,5.41
	c9.345,5.818,6.511-5.457,6.511-5.457s3.229-1.541,11.342,5.425c8.516,7.313,7.454-4.958,7.454-4.958s4.546-1.314,10.632,5.08
	c-0.055,7.174-0.055,30.336-0.055,30.336h-64L0.206,29.257z"/>
</svg>
