<?xml version="1.0" encoding="utf-8"?>
<!-- Generator: Adobe Illustrator 15.0.0, SVG Export Plug-In  -->
<!DOCTYPE svg PUBLIC "-//W3C//DTD SVG 1.1//EN" "http://www.w3.org/Graphics/SVG/1.1/DTD/svg11.dtd" [
	<!ENTITY ns_flows "http://ns.adobe.com/Flows/1.0/">
]>
<svg version="1.1"
	 xmlns="http://www.w3.org/2000/svg" xmlns:xlink="http://www.w3.org/1999/xlink" xmlns:a="http://ns.adobe.com/AdobeSVGViewerExtensions/3.0/"
	 x="0px" y="0px" width="64px" height="64px" viewBox="0 0 64 64" enable-background="new 0 0 64 64" xml:space="preserve">
<defs>
</defs>
<circle display="none" opacity="0.52" fill="none" stroke="#000000" stroke-width="0.25" stroke-miterlimit="10" enable-background="new    " cx="32.125" cy="32.125" r="32"/>
<line display="none" opacity="0.5" fill="none" stroke="#000000" stroke-miterlimit="10" enable-background="new    " x1="0.125" y1="32.625" x2="64.125" y2="32.625"/>
<line display="none" opacity="0.5" fill="none" stroke="#000000" stroke-miterlimit="10" enable-background="new    " x1="31.625" y1="0.125" x2="31.625" y2="64.125"/>
<circle display="none" opacity="0.5" fill="none" stroke="#000000" stroke-width="0.25" stroke-miterlimit="10" enable-background="new    " cx="31.625" cy="32.625" r="24.5"/>
<path d="M31.627,4.129c0,0,12.24-0.151,20.513,8.721c8.274,8.873,7.983,19.775,7.983,19.775s0.733,10.313-7.703,19.478
	c-8.436,9.164-20.793,9.019-20.793,9.019s-11.362,0.32-20.219-8.417c-8.857-8.737-8.277-20.079-8.277-20.079
	s-1.141-8.634,7.134-18.856C18.542,3.548,31.627,4.129,31.627,4.129z"/>
</svg>
