<?xml version="1.0" encoding="utf-8"?>
<!-- Generator: Adobe Illustrator 15.0.0, SVG Export Plug-In  -->
<!DOCTYPE svg PUBLIC "-//W3C//DTD SVG 1.1//EN" "http://www.w3.org/Graphics/SVG/1.1/DTD/svg11.dtd" [
	<!ENTITY ns_flows "http://ns.adobe.com/Flows/1.0/">
]>
<svg version="1.1"
	 xmlns="http://www.w3.org/2000/svg" xmlns:xlink="http://www.w3.org/1999/xlink" xmlns:a="http://ns.adobe.com/AdobeSVGViewerExtensions/3.0/"
	 x="0px" y="0px" width="64px" height="64px" viewBox="0.354 0.354 64 64" enable-background="new 0.354 0.354 64 64"
	 xml:space="preserve">
<defs>
</defs>
<circle display="none" opacity="0.52" fill="none" stroke="#000000" stroke-width="0.25" stroke-miterlimit="10" cx="32.354" cy="32.354" r="32"/>
<line display="none" opacity="0.5" fill="none" stroke="#000000" stroke-miterlimit="10" x1="0.354" y1="32.854" x2="64.354" y2="32.854"/>
<line display="none" opacity="0.5" fill="none" stroke="#000000" stroke-miterlimit="10" x1="31.854" y1="0.354" x2="31.854" y2="64.354"/>
<circle display="none" opacity="0.5" fill="none" stroke="#000000" stroke-width="0.25" stroke-miterlimit="10" cx="31.854" cy="32.854" r="24.5"/>
<line display="none" fill="none" stroke="#000000" stroke-miterlimit="10" x1="64.354" y1="0.354" x2="0.354" y2="64.354"/>
<line display="none" fill="none" stroke="#000000" stroke-miterlimit="10" x1="0.354" y1="0.354" x2="64.354" y2="64.354"/>
<path d="M6.354,6.354c0,0,22.001,1,25.5,1s26.5-1,26.5-1s-1,23.501-1,26.625s1,26.375,1,26.375s-23.332-1-26.5-1
	c-3.167,0-25.5,1-25.5,1s1-22.834,1-26.5C7.354,29.187,6.354,6.354,6.354,6.354z"/>
</svg>
